<svg xmlns="http://www.w3.org/2000/svg" width="19.844" height="19.844" viewBox="0 0 19.844 19.844">
  <path id="icon-question-mark" d="M17.922,8a9.922,9.922,0,1,0,9.922,9.922A9.924,9.924,0,0,0,17.922,8Zm0,17.924a8,8,0,1,1,8-8A8,8,0,0,1,17.922,25.924Zm4.291-10.21c0,2.683-2.9,2.724-2.9,3.715v.254a.48.48,0,0,1-.48.48H17.009a.48.48,0,0,1-.48-.48v-.346c0-1.43,1.084-2,1.9-2.461.7-.394,1.133-.662,1.133-1.183,0-.69-.88-1.148-1.592-1.148-.928,0-1.356.439-1.958,1.2a.48.48,0,0,1-.667.085l-1.113-.844a.481.481,0,0,1-.106-.655,4.5,4.5,0,0,1,4.024-2.168C20.117,12.161,22.213,13.693,22.213,15.714ZM19.6,22.4a1.68,1.68,0,1,1-1.68-1.68A1.682,1.682,0,0,1,19.6,22.4Z" transform="translate(-8 -8)" fill="#33d9b2"/>
</svg>
